<svg width="52" height="52" viewBox="0 0 52 52" fill="none" xmlns="http://www.w3.org/2000/svg">
<g clip-path="url(#clip0_311_562)">
<path d="M6.00403 26.0039C6.00515 30.7665 7.70497 35.3726 10.798 38.9942C13.8909 42.6158 18.1743 45.0155 22.878 45.7619V31.7839H17.804V26.0039H22.884V21.6039C22.7719 20.5741 22.8878 19.5322 23.2237 18.5522C23.5595 17.5723 24.107 16.6783 24.8273 15.9338C25.5476 15.1893 26.423 14.6125 27.3913 14.2444C28.3596 13.8763 29.3971 13.7259 30.43 13.8039C31.93 13.8279 33.43 13.9619 34.91 14.2039V19.1219H32.382C31.9524 19.0656 31.5156 19.1066 31.1039 19.2419C30.6922 19.3771 30.3162 19.6031 30.0036 19.9033C29.691 20.2034 29.4498 20.5699 29.2979 20.9757C29.146 21.3815 29.0873 21.8163 29.126 22.2479V26.0039H34.668L33.782 31.7859H29.126V45.7619C32.9013 45.1653 36.4265 43.4994 39.2843 40.9615C42.1422 38.4235 44.213 35.1198 45.2515 31.4416C46.2901 27.7633 46.2529 23.8644 45.1444 20.2066C44.0359 16.5488 41.9025 13.2852 38.9968 10.8022C36.091 8.31923 32.5347 6.72086 28.7488 6.19633C24.9628 5.67179 21.1059 6.24307 17.6345 7.84252C14.1632 9.44197 11.2229 12.0026 9.16164 15.2213C7.10042 18.4399 6.00464 22.1818 6.00403 26.0039Z" fill="#800216"/>
</g>
<rect x="1" y="1" width="50" height="50" rx="25" stroke="#800216" stroke-width="2"/>
<defs>
<clipPath id="clip0_311_562">
<rect x="2" y="2" width="48" height="48" rx="24" fill="white"/>
</clipPath>
</defs>
</svg>
