<svg width="52" height="52" viewBox="0 0 52 52" fill="none" xmlns="http://www.w3.org/2000/svg">
<g clip-path="url(#clip0_311_568)">
<path d="M26 19.7516C22.5594 19.7516 19.7515 22.5594 19.7515 26C19.7515 29.4407 22.5594 32.2485 26 32.2485C29.4406 32.2485 32.2484 29.4407 32.2484 26C32.2484 22.5594 29.4406 19.7516 26 19.7516ZM44.7406 26C44.7406 23.4125 44.764 20.8485 44.6187 18.2657C44.4734 15.2657 43.789 12.6032 41.5953 10.4094C39.3969 8.21096 36.739 7.53128 33.739 7.38596C31.1515 7.24065 28.5875 7.26409 26.0047 7.26409C23.4172 7.26409 20.8531 7.24065 18.2703 7.38596C15.2703 7.53128 12.6078 8.21565 10.414 10.4094C8.2156 12.6078 7.53592 15.2657 7.3906 18.2657C7.24529 20.8532 7.26873 23.4172 7.26873 26C7.26873 28.5828 7.24529 31.1516 7.3906 33.7344C7.53592 36.7344 8.22029 39.3969 10.414 41.5907C12.6125 43.7891 15.2703 44.4688 18.2703 44.6141C20.8578 44.7594 23.4219 44.736 26.0047 44.736C28.5922 44.736 31.1562 44.7594 33.739 44.6141C36.739 44.4688 39.4015 43.7844 41.5953 41.5907C43.7937 39.3922 44.4734 36.7344 44.6187 33.7344C44.7687 31.1516 44.7406 28.5875 44.7406 26ZM26 35.6141C20.6797 35.6141 16.3859 31.3203 16.3859 26C16.3859 20.6797 20.6797 16.386 26 16.386C31.3203 16.386 35.614 20.6797 35.614 26C35.614 31.3203 31.3203 35.6141 26 35.6141ZM36.0078 18.2375C34.7656 18.2375 33.7625 17.2344 33.7625 15.9922C33.7625 14.75 34.7656 13.7469 36.0078 13.7469C37.25 13.7469 38.2531 14.75 38.2531 15.9922C38.2535 16.2872 38.1957 16.5793 38.0829 16.8519C37.9702 17.1245 37.8049 17.3721 37.5963 17.5807C37.3877 17.7893 37.1401 17.9547 36.8675 18.0674C36.5949 18.1801 36.3028 18.2379 36.0078 18.2375Z" fill="#800216"/>
</g>
<rect x="1" y="1" width="50" height="50" rx="25" stroke="#800216" stroke-width="2"/>
<defs>
<clipPath id="clip0_311_568">
<rect x="2" y="2" width="48" height="48" rx="24" fill="white"/>
</clipPath>
</defs>
</svg>
