<svg width="137" height="64" viewBox="0 0 137 64" fill="none" xmlns="http://www.w3.org/2000/svg">
<path d="M40.56 45.84C47.04 45.84 51.68 42.64 53.52 38.8H53.84V46.72C53.84 54.08 51.92 56.32 44.16 56.32C36.16 56.32 34.16 54.48 34.16 49.04H25.6C25.6 58.64 32.64 64 43.92 64C55.52 64 62.4 58.48 62.4 46.72V9.84H54.48V16.4H54.16C52.24 11.76 47.28 9.04 40.88 9.04C29.68 9.04 23.52 16.24 23.52 27.44C23.52 38.64 29.6 45.84 40.56 45.84ZM32.16 27.44C32.16 19.28 35.44 16.4 42.88 16.4C49.52 16.4 53.84 19.52 53.84 26.16V28.64C53.84 35.36 49.52 38.48 43.04 38.48C35.52 38.48 32.16 35.6 32.16 27.44Z" fill="#ED0027"/>
<path d="M88.1906 50.4C98.9106 50.4 106.031 45.12 106.031 36.96V36.24H97.4706V36.88C97.4706 40.48 94.9106 42.72 88.2706 42.72C79.9506 42.72 77.3106 39.04 76.9906 31.76H105.871C106.111 30.56 106.351 28.4 106.351 26.32C106.351 15.44 98.8306 9.04 88.1106 9.04C76.2706 9.04 68.9106 17.36 68.9106 29.68C68.9106 42.08 75.0706 50.4 88.1906 50.4ZM87.9506 16.32C94.7506 16.32 98.4306 19.2 98.1106 26H77.0706C77.5506 19.84 80.4306 16.32 87.9506 16.32Z" fill="#ED0027"/>
<path d="M129.494 49.6C132.214 49.6 134.934 49.28 136.614 48.88V41.84H131.734C126.374 41.84 124.614 41.12 124.614 36.96V17.04H136.614V9.84H124.614V0H117.974L116.134 9.84H109.334V17.04H115.974V37.36C115.974 46.32 120.614 49.6 129.494 49.6Z" fill="#ED0027"/>
<path d="M12.0001 27.92C12.0001 18.8456 16.0437 12.3971 23.28 10.2761V13.6008C18.7737 15.1833 15.5201 19.1928 15.5201 27.92C15.5201 36.4112 18.7968 40.4554 23.28 42.1228V45.5083C16.0779 43.3322 12.0001 36.9165 12.0001 27.92Z" fill="#ED0027"/>
<path d="M0 27.92C0 18.8457 4.04365 12.3971 11.28 10.2762V13.6008C6.77362 15.1834 3.52 19.1928 3.52 27.92C3.52 36.4112 6.79672 40.4554 11.28 42.1228V45.5083C4.07788 43.3322 0 36.9166 0 27.92Z" fill="#ED0027"/>
</svg>
